<svg width="19" height="23" viewBox="0 0 19 23" fill="none" xmlns="http://www.w3.org/2000/svg">
<path d="M4.99225 22.2958C4.55849 22.0034 4.17404 21.6422 3.8537 21.226C3.50134 20.7964 3.17485 20.3457 2.87604 19.8763C2.17481 18.8357 1.6249 17.6983 1.24315 16.4992C0.784572 15.1063 0.5625 13.7712 0.5625 12.4653C0.5625 11.007 0.873951 9.73386 1.4831 8.66411C1.93466 7.82798 2.59856 7.12925 3.40612 6.64022C4.18874 6.14781 5.08799 5.87834 6.00911 5.86019C6.33156 5.86019 6.67876 5.90755 7.04728 5.99809C7.31198 6.07401 7.63443 6.1938 8.02839 6.34284C8.52959 6.53854 8.80529 6.65833 8.8988 6.68758C9.19237 6.79623 9.4392 6.84358 9.63308 6.84358C9.78021 6.84358 9.98785 6.79623 10.2237 6.72379C10.3564 6.67644 10.6066 6.59286 10.9648 6.43755C11.3196 6.30662 11.5987 6.19449 11.8208 6.11092C12.1611 6.00924 12.4905 5.91521 12.784 5.86786C13.1321 5.81227 13.4853 5.79755 13.8366 5.82398C14.4455 5.86429 15.0453 5.995 15.6166 6.2119C16.551 6.59286 17.3066 7.18763 17.869 8.03312C17.6313 8.18153 17.4082 8.35272 17.2028 8.54432C16.7556 8.94588 16.3747 9.41729 16.0745 9.94071C15.6822 10.656 15.4787 11.4618 15.484 12.2801C15.4984 13.2851 15.7528 14.1703 16.254 14.9357C16.6225 15.5029 17.1014 15.988 17.6614 16.3613C17.9481 16.557 18.1949 16.6914 18.4314 16.7819C18.3207 17.1302 18.2024 17.4673 18.0629 17.8016C17.7463 18.5512 17.3627 19.2699 16.9168 19.9487C16.5194 20.533 16.2079 20.9683 15.9714 21.258C15.6029 21.7003 15.2481 22.0381 14.8899 22.2735C14.496 22.5381 14.0305 22.6795 13.5575 22.6795C13.2371 22.692 12.9169 22.6527 12.6087 22.5632C12.344 22.4727 12.0821 22.3745 11.8242 22.2623C11.5562 22.1376 11.2798 22.0322 10.9971 21.9468C10.2984 21.765 9.56579 21.7638 8.86648 21.9434C8.57978 22.0269 8.30408 22.1244 8.03182 22.2442C7.64887 22.4072 7.39448 22.5165 7.24735 22.5632C6.95378 22.6503 6.6492 22.7046 6.34119 22.7227C5.86473 22.7227 5.42058 22.5848 4.98057 22.3055L4.99225 22.2958ZM11.2763 5.1526C10.6534 5.46809 10.0587 5.60251 9.46807 5.55863C9.37526 4.9562 9.46807 4.33984 9.71489 3.66498C9.92503 3.09324 10.2355 2.56471 10.6314 2.10493C11.0494 1.62091 11.5566 1.22418 12.1247 0.936977C12.7297 0.621484 13.3066 0.450854 13.858 0.425781C13.9295 1.05677 13.858 1.67731 13.629 2.34799C13.4171 2.94087 13.1072 3.49291 12.7125 3.98047C12.3097 4.46515 11.8153 4.86342 11.2584 5.1519L11.2763 5.1526Z" fill="black"/>
</svg>
