<svg width="21" height="21" viewBox="0 0 21 21" fill="none" xmlns="http://www.w3.org/2000/svg">
<path d="M4.93261 12.9597L4.23641 15.5924L1.69181 15.647C0.931347 14.2182 0.5 12.5835 0.5 10.8463C0.5 9.16645 0.903299 7.58234 1.61817 6.1875H1.61872L3.88413 6.60822L4.87652 8.88926C4.66881 9.50265 4.55561 10.1611 4.55561 10.8463C4.55568 11.5899 4.68866 12.3024 4.93261 12.9597Z" fill="#FBBB00"/>
<path d="M20.3246 8.95312C20.4394 9.56592 20.4993 10.1988 20.4993 10.8456C20.4993 11.5708 20.4241 12.2783 20.2807 12.9607C19.7938 15.2828 18.5218 17.3105 16.7596 18.7455L16.7591 18.7449L13.9057 18.5974L13.5018 16.0437C14.6711 15.3491 15.5849 14.262 16.0662 12.9607H10.7188V8.95312H16.1443H20.3246Z" fill="#518EF8"/>
<path d="M16.7563 18.7468L16.7568 18.7474C15.043 20.1428 12.866 20.9777 10.4961 20.9777C6.68772 20.9777 3.3766 18.8214 1.6875 15.6482L4.9283 12.9609C5.77283 15.2441 7.94711 16.8694 10.4961 16.8694C11.5918 16.8694 12.6182 16.5694 13.499 16.0456L16.7563 18.7468Z" fill="#28B446"/>
<path d="M16.8827 3.05091L13.643 5.73764C12.7314 5.16045 11.6539 4.82702 10.4994 4.82702C7.89273 4.82702 5.67779 6.52688 4.87557 8.89193L1.61773 6.19017H1.61719C3.28156 2.9396 6.63444 0.71875 10.4994 0.71875C12.9259 0.71875 15.1507 1.5943 16.8827 3.05091Z" fill="#F14336"/>
</svg>
